<?xml version="1.0" encoding="UTF-8" standalone="no"?>
<!-- Created with Inkscape (http://www.inkscape.org/) -->

<svg
   xmlns:dc="http://purl.org/dc/elements/1.1/"
   xmlns:cc="http://creativecommons.org/ns#"
   xmlns:rdf="http://www.w3.org/1999/02/22-rdf-syntax-ns#"
   xmlns:svg="http://www.w3.org/2000/svg"
   xmlns="http://www.w3.org/2000/svg"
   xmlns:xlink="http://www.w3.org/1999/xlink"
   xmlns:sodipodi="http://sodipodi.sourceforge.net/DTD/sodipodi-0.dtd"
   xmlns:inkscape="http://www.inkscape.org/namespaces/inkscape"
   width="680.315"
   height="302.36221"
   id="svg2"
   version="1.1"
   inkscape:version="0.92.2 (unknown)"
   sodipodi:docname="Elvie_028.svg"
   inkscape:export-filename="/home/xav/Desktop/Elvie/git/Elvie/Elvie_028/Elvie_028_en_GB.png"
   inkscape:export-xdpi="600.07501"
   inkscape:export-ydpi="600.07501"
   viewBox="0 0 637.79529 283.46457">
  <title
     id="title3733">Elvie #028</title>
  <defs
     id="defs4">
    <linearGradient
       inkscape:collect="always"
       id="linearGradient3868">
      <stop
         style="stop-color:#ffffff;stop-opacity:1;"
         offset="0"
         id="stop3870" />
      <stop
         style="stop-color:#ffffff;stop-opacity:0;"
         offset="1"
         id="stop3872" />
    </linearGradient>
    <inkscape:path-effect
       effect="skeletal"
       id="path-effect3047"
       is_visible="true"
       pattern="m -32.827243,710.8283 c -0.250666,-0.016 -0.485585,0.0298 -0.65625,0.0937 -0.320002,0.1067 -0.567919,0.47511 -0.78125,1.09375 -0.298668,1.08803 -0.617501,2.26119 -0.9375,3.5625 -0.298667,1.30136 -0.607583,2.65452 -0.90625,4.0625 -0.298666,1.40802 -0.556499,2.82069 -0.8125,4.25 -0.255999,1.40802 -0.505415,2.80235 -0.71875,4.125 -0.213331,1.32268 -0.381915,2.53551 -0.53125,3.6875 -0.149331,1.13067 -0.248497,2.13676 -0.3125,2.96875 -0.08533,0.53334 -0.03575,0.99101 0.15625,1.375 0.192002,0.36267 0.449835,0.67009 0.8125,0.96875 0.490668,0.384 0.888834,0.71275 1.1875,0.96875 0.298667,0.23467 0.637333,0.48409 1,0.71875 0.149333,0.10667 0.288166,0.19592 0.4375,0.28125 0.170665,0.0853 0.390332,0.14484 0.625,0.1875 0.234665,0.064 0.492498,0.0838 0.8125,0.0625 0.319997,-0.0213 0.718163,-0.0907 1.1875,-0.21875 1.279995,-0.256 2.623244,-0.52525 4.03125,-0.78125 1.429324,-0.27733 2.812239,-0.52525 4.15625,-0.78125 0.661321,-0.128 1.029737,-0.28816 1.09375,-0.4375 0.08532,-0.14933 0.05557,-0.427 -0.09375,-0.875 -0.08535,-0.36266 -0.204346,-0.74099 -0.375,-1.125 -0.149346,-0.40533 -0.369012,-0.80349 -0.625,-1.1875 -0.256012,-0.40533 -0.523761,-0.67458 -0.84375,-0.78125 -0.298677,-0.12799 -0.746427,-0.16766 -1.34375,-0.125 -1.002675,0.064 -1.927924,0.13342 -2.78125,0.21875 -0.853339,0.0853 -1.768672,0.23559 -2.75,0.40625 0.341329,-1.47199 0.678495,-3.02499 1.0625,-4.625 0.405328,-1.62132 0.823327,-3.2224 1.25,-4.84375 0.447993,-1.62131 0.885826,-3.21398 1.3125,-4.75 0.447992,-1.53598 0.885825,-2.93873 1.3125,-4.21875 0.191991,-0.55464 0.211824,-0.98256 0.0625,-1.28125 -0.128009,-0.29864 -0.445342,-0.65714 -1,-1.0625 -0.576008,-0.38397 -1.263257,-0.73255 -2.03125,-1.03125 -0.768005,-0.31997 -1.463671,-0.54805 -2.125,-0.71875 -0.330669,-0.096 -0.624334,-0.1715 -0.875,-0.1875 z m -7.477679,0.0937 c -1.280014,0.0427 -2.573679,0.14186 -3.875,0.3125 -1.28001,0.14936 -2.543925,0.31795 -3.78125,0.53125 -1.216006,0.21336 -2.369338,0.46278 -3.5,0.71875 -1.109336,0.25603 -2.145172,0.48411 -3.062502,0.71875 l -3.03125,21.28125 c -0.0427,0.57601 0.0367,1.09467 0.25,1.5 0.192,0.40534 0.48109,0.73259 0.84375,1.03125 0.448,0.384 0.83625,0.71275 1.15625,0.96875 0.34134,0.23467 0.66859,0.48409 1.03125,0.71875 0.32,0.21334 0.69833,0.36209 1.125,0.46875 0.447999,0.128 1.115415,0.0883 1.968752,-0.125 1.279994,-0.23466 2.623243,-0.50391 4.03125,-0.78125 1.40799,-0.27733 2.790906,-0.52525 4.15625,-0.78125 0.575987,-0.10666 0.92457,-0.25691 1.03125,-0.40625 0.106653,-0.17066 0.106653,-0.44833 0,-0.875 -0.17068,-0.38399 -0.35068,-0.76233 -0.5,-1.125 -0.128013,-0.38399 -0.306513,-0.79208 -0.5625,-1.21875 -0.234679,-0.38399 -0.533679,-0.65324 -0.875,-0.78125 -0.320011,-0.12799 -0.777677,-0.16766 -1.375,-0.125 -1.066676,0.064 -2.051425,0.14334 -2.96875,0.25 -0.896006,0.10667 -1.841089,0.26684 -2.84375,0.4375 0.170662,-0.59733 0.319412,-1.21516 0.46875,-1.8125 0.149328,-0.61866 0.329328,-1.25482 0.5,-1.9375 1.237327,-0.25599 2.489826,-0.50541 3.8125,-0.71875 1.34399,-0.21332 2.657488,-0.42157 3.9375,-0.65625 0.59732,-0.12799 0.965736,-0.26682 1.09375,-0.4375 0.149319,-0.17065 0.139402,-0.50932 -0.03125,-1 -0.106681,-0.42665 -0.225681,-0.84465 -0.375,-1.25 -0.128014,-0.42665 -0.337763,-0.85457 -0.59375,-1.28125 -0.23468,-0.42665 -0.502429,-0.71573 -0.84375,-0.84375 -0.341345,-0.12798 -0.808928,-0.17757 -1.40625,-0.15625 -0.725344,0.0213 -1.422509,0.0511 -2.0625,0.0937 -0.640008,0.0427 -1.266258,0.10218 -1.90625,0.1875 0.341326,-1.13065 0.628909,-2.19473 0.90625,-3.21875 0.277325,-1.04531 0.586242,-2.03998 0.90625,-3 1.514656,-0.21331 2.947155,-0.41314 4.3125,-0.5625 1.365319,-0.14931 2.688734,-0.28814 3.96875,-0.4375 0.618649,-0.0853 1.016815,-0.21423 1.1875,-0.40625 0.170648,-0.19198 0.210315,-0.57031 0.125,-1.125 -0.106685,-0.49064 -0.205851,-0.93839 -0.3125,-1.34375 -0.106685,-0.42664 -0.285184,-0.89422 -0.5625,-1.40625 -0.34135,-0.95997 -1.127766,-1.42755 -2.34375,-1.40625 z m 68.919643,0 c -1.28002,0.0427 -2.57368,0.14186 -3.875,0.3125 -1.28001,0.14936 -2.54393,0.31795 -3.78125,0.53125 -1.21601,0.21336 -2.36934,0.46278 -3.5,0.71875 -1.10934,0.25603 -2.14517,0.48411 -3.0625,0.71875 l -3.03125,21.28125 c -0.0427,0.57601 0.0367,1.09467 0.25,1.5 0.192,0.40534 0.48108,0.73259 0.84375,1.03125 0.448,0.384 0.83625,0.71275 1.15625,0.96875 0.34133,0.23467 0.66858,0.48409 1.03125,0.71875 0.31999,0.21334 0.69833,0.36209 1.125,0.46875 0.44799,0.128 1.11541,0.0883 1.96875,-0.125 1.27999,-0.23466 2.62324,-0.50391 4.03125,-0.78125 1.40799,-0.27733 2.7909,-0.52525 4.15625,-0.78125 0.57598,-0.10666 0.92457,-0.25691 1.03125,-0.40625 0.10665,-0.17066 0.10665,-0.44833 0,-0.875 -0.17068,-0.38399 -0.35068,-0.76233 -0.5,-1.125 -0.12802,-0.38399 -0.30652,-0.79208 -0.5625,-1.21875 -0.23468,-0.38399 -0.53368,-0.65324 -0.875,-0.78125 -0.32002,-0.12799 -0.77768,-0.16766 -1.375,-0.125 -1.06668,0.064 -2.05143,0.14334 -2.96875,0.25 -0.89601,0.10667 -1.84109,0.26684 -2.84375,0.4375 0.17066,-0.59733 0.31941,-1.21516 0.46875,-1.8125 0.14932,-0.61866 0.32932,-1.25482 0.5,-1.9375 1.23732,-0.25599 2.48982,-0.50541 3.8125,-0.71875 1.34399,-0.21332 2.65748,-0.42157 3.9375,-0.65625 0.59732,-0.12799 0.96573,-0.26682 1.09375,-0.4375 0.14932,-0.17065 0.1394,-0.50932 -0.03125,-1 -0.10668,-0.42665 -0.22568,-0.84465 -0.375,-1.25 -0.12802,-0.42665 -0.33777,-0.85457 -0.59375,-1.28125 -0.23468,-0.42665 -0.50243,-0.71573 -0.84375,-0.84375 -0.34135,-0.12798 -0.80893,-0.17757 -1.40625,-0.15625 -0.72535,0.0213 -1.42251,0.0511 -2.0625,0.0937 -0.64001,0.0427 -1.26626,0.10218 -1.90625,0.1875 0.34132,-1.13065 0.62891,-2.19473 0.90625,-3.21875 0.27732,-1.04531 0.58624,-2.03998 0.90625,-3 1.51465,-0.21331 2.94715,-0.41314 4.3125,-0.5625 1.36531,-0.14931 2.68873,-0.28814 3.96875,-0.4375 0.61864,-0.0853 1.01681,-0.21423 1.1875,-0.40625 0.17064,-0.19198 0.21031,-0.57031 0.125,-1.125 -0.10669,-0.49064 -0.20586,-0.93839 -0.3125,-1.34375 -0.10669,-0.42664 -0.28519,-0.89422 -0.5625,-1.40625 -0.34135,-0.95997 -1.12777,-1.42755 -2.34375,-1.40625 z m -33.5982152,0.0625 c -0.15467,0.0213 -0.29885,0.0816 -0.4375,0.15625 -0.27735,0.12803 -0.4856,0.36603 -0.65625,0.75 -1.34402,3.37069 -2.6872698,6.78411 -4.0312488,10.21875 -1.32268,3.43468 -2.68576,6.68793 -4.09375,9.78125 -0.23468,-1.55732 -0.47418,-3.10882 -0.6875,-4.6875 -0.19201,-1.59998 -0.36059,-3.15298 -0.53125,-4.625 -0.17068,-1.47198 -0.36059,-2.86481 -0.53125,-4.1875 -0.14934,-1.32264 -0.27826,-2.48589 -0.40625,-3.53125 -0.19201,-1.36531 -0.99826,-2.30047 -2.40625,-2.8125 -0.57601,-0.23464 -1.12292,-0.41464 -1.65625,-0.5 -0.51201,-0.0853 -1.06884,-0.12497 -1.6875,-0.125 -0.64,3e-5 -1.02825,0.10911 -1.15625,0.34375 -0.14934,0.2347 -0.198919,0.64278 -0.15625,1.21875 0.46933,4.37336 0.9865,8.39319 1.5625,12.0625 0.59733,3.64801 1.25333,6.95234 2,9.875 0.12799,0.51201 0.40716,1.06884 0.8125,1.6875 0.42666,0.59734 1.02316,1.07484 1.8125,1.4375 0.70399,0.34134 1.39124,0.63042 2.03125,0.84375 0.63999,0.21334 1.31582,0.41167 2.0625,0.625 0.74665,0.192 1.34465,0.21183 1.75,0.0625 0.40532,-0.128 0.73257,-0.45675 1.03125,-0.96875 0.4693195,-0.87466 1.0276495,-1.909 1.624999,-3.125 0.5973198,-1.21599 1.2136498,-2.51958 1.8749998,-3.90625 0.66131,-1.38666 1.33865,-2.80924 2,-4.28125 0.66131,-1.47198 1.27764,-2.89457 1.875,-4.28125 0.59731,-1.40798 1.13431,-2.7314 1.625,-3.96875 0.49064003,-1.23731 0.88881003,-2.34256 1.18750006,-3.28125 0.19197,-0.46931 0.27131,-0.88731 0.25,-1.25 -3e-5,-0.36264 -0.08925,-0.67006 -0.28125,-0.96875 -0.19203003,-0.29864 -0.47119003,-0.57781 -0.81250006,-0.8125 -0.34136,-0.25597 -0.69836,-0.48405 -1.125,-0.71875 -0.40536,-0.25597 -0.81344,-0.48555 -1.21875,-0.65625 -0.38402,-0.19197 -0.76236,-0.30105 -1.125,-0.34375 -0.17068,-0.032 -0.34533,-0.0526 -0.5,-0.0312 z m 10.03125,0.34375 c -0.25067,-0.0107 -0.45434,0.0191 -0.625,0.0937 -0.32001,0.12803 -0.55801,0.50636 -0.75,1.125 -0.23467,1.00269 -0.50392,2.18728 -0.78125,3.53125 -0.27734,1.32269 -0.56642,2.72544 -0.84375,4.21875 -0.256,1.49335 -0.4939999,3.00518 -0.7499999,4.5625 -0.256,1.55735 -0.49550004,3.06076 -0.68750004,4.46875 -0.21334,1.40801 -0.372,2.68034 -0.5,3.875 -0.14934,1.17334 -0.23859,2.15959 -0.28125,2.90625 -0.064,0.55467 -0.01445,0.9925 0.15625,1.3125 0.14933,0.29867 0.47808,0.54659 0.96875,0.78125 0.44800004,0.23467 0.91557994,0.44442 1.40624994,0.59375 0.512,0.14934 1.03908,0.28817 1.59375,0.4375 0.55466,0.128 0.92308,0.13792 1.09375,0.0312 0.19199,-0.10666 0.33083,-0.35608 0.4375,-0.71875 0.19199,-0.96 0.43149,-2.034 0.6875,-3.25 0.27733,-1.23733 0.55499,-2.54091 0.875,-3.90625 0.31999,-1.38666 0.6586602,-2.7894 1.0000002,-4.21875 0.34132,-1.45065 0.68991,-2.8534 1.03125,-4.21875 0.36266,-1.38665 0.72116,-2.70015 1.0625,-3.9375 0.36265,-1.23731 0.670071,-2.35248 0.968751,-3.3125 0.14932,-0.57597 0.15924,-1.01381 0.03125,-1.3125 -0.10668,-0.29864 -0.433931,-0.62589 -1.031251,-1.03125 -0.57601,-0.38397 -1.26326,-0.75239 -2.03125,-1.09375 -0.7680102,-0.3413 -1.4949302,-0.61055 -2.1562502,-0.78125 -0.33067,-0.096 -0.62433,-0.14558 -0.875,-0.15625 z"
       copytype="single_stretched"
       prop_scale="1"
       scale_y_rel="false"
       spacing="0"
       normal_offset="0"
       tang_offset="0"
       prop_units="false"
       vertical_pattern="false"
       fuse_tolerance="0" />
    <filter
       id="filter3233"
       inkscape:label="Bubble Shadow"
       style="color-interpolation-filters:sRGB">
      <feOffset
         dx="-2"
         dy="2"
         id="feOffset3235"
         in="SourceAlpha"
         result="result1" />
      <feColorMatrix
         id="feColorMatrix3243"
         result="result2"
         type="matrix"
         values="1 0 0 0 0 0 1 0 0 0 0 0 1 0 0 0 0 0 1 -0.5 " />
      <feMerge
         id="feMerge3237">
        <feMergeNode
           inkscape:collect="always"
           id="feMergeNode3239"
           in="result2" />
        <feMergeNode
           inkscape:collect="always"
           id="feMergeNode3241"
           in="SourceGraphic" />
      </feMerge>
    </filter>
    <linearGradient
       inkscape:collect="always"
       xlink:href="#linearGradient3868"
       id="linearGradient3060"
       gradientUnits="userSpaceOnUse"
       x1="58.349556"
       y1="831.36151"
       x2="48.383369"
       y2="811.94092" />
    <mask
       maskUnits="userSpaceOnUse"
       id="mask3056">
      <path
         style="color:#000000;display:inline;overflow:visible;visibility:visible;fill:url(#linearGradient3060);fill-opacity:1;stroke:none;stroke-width:2;marker:none;enable-background:accumulate"
         d="M 19.180755,788.40156 H 210.50538 c 11.08,0 20,8.92 20,20 v 221.99994 c 0,11.08 -8.92,20 -20,20 H 39.076799 c -11.08,0 -20,-8.92 -20,-20 z"
         id="path3058"
         inkscape:connector-curvature="0"
         sodipodi:nodetypes="cssssssc" />
    </mask>
    <clipPath
       clipPathUnits="userSpaceOnUse"
       id="clipPath3091">
      <rect
         style="color:#000000;display:inline;overflow:visible;visibility:visible;fill:none;stroke:#00ff00;stroke-width:2.04997253;stroke-linecap:round;stroke-linejoin:miter;stroke-miterlimit:4;stroke-dasharray:none;stroke-dashoffset:0;stroke-opacity:1;marker:none;enable-background:accumulate"
         id="rect3093"
         width="194.77287"
         height="261.89874"
         x="240.96535"
         y="788.42651"
         ry="21.011934" />
    </clipPath>
    <clipPath
       clipPathUnits="userSpaceOnUse"
       id="clipPath3095">
      <rect
         style="color:#000000;display:inline;overflow:visible;visibility:visible;fill:none;stroke:#00ff00;stroke-width:2;stroke-linecap:round;stroke-linejoin:miter;stroke-miterlimit:4;stroke-dasharray:none;stroke-dashoffset:0;stroke-opacity:1;marker:none;enable-background:accumulate"
         id="rect3097"
         width="190.71428"
         height="249.28571"
         x="446.36246"
         y="788.40155"
         ry="20" />
    </clipPath>
  </defs>
  <sodipodi:namedview
     id="base"
     pagecolor="#ffffff"
     bordercolor="#666666"
     borderopacity="1.0"
     inkscape:pageopacity="0"
     inkscape:pageshadow="2"
     inkscape:zoom="2.0505207"
     inkscape:cx="340.1575"
     inkscape:cy="151.18111"
     inkscape:document-units="px"
     inkscape:current-layer="layer2"
     showgrid="false"
     inkscape:window-width="1148"
     inkscape:window-height="1004"
     inkscape:window-x="436"
     inkscape:window-y="25"
     inkscape:window-maximized="0"
     units="mm"
     inkscape:snap-global="false"
     inkscape:snap-page="true"
     showguides="true"
     inkscape:guide-bbox="true" />
  <metadata
     id="metadata7">
    <rdf:RDF>
      <cc:Work
         rdf:about="">
        <dc:format>image/svg+xml</dc:format>
        <dc:type
           rdf:resource="http://purl.org/dc/dcmitype/StillImage" />
        <dc:title>Elvie #028</dc:title>
        <dc:creator>
          <cc:Agent>
            <dc:title>Peppertop Comics</dc:title>
          </cc:Agent>
        </dc:creator>
        <dc:identifier>http://peppertop.com/elvie/comic/elvie-028/</dc:identifier>
        <dc:source>http://peppertop.com/elvie/comic/elvie-028/</dc:source>
        <dc:language>en-GB</dc:language>
        <dc:subject>
          <rdf:Bag>
            <rdf:li>GNU/Linux</rdf:li>
            <rdf:li>Richard Stallman</rdf:li>
            <rdf:li>RMS</rdf:li>
          </rdf:Bag>
        </dc:subject>
        <dc:description>Elvie: Richard Stallman was born in 1953, to Daniel Stallman and Alice Lippman.

But as his mother contributed half of his genes…

…why hasn't he changed his name to &quot;Richard Lippman/Stallman&quot;???</dc:description>
        <dc:contributor>
          <cc:Agent>
            <dc:title>Vincent Mealing
Mark Crutch</dc:title>
          </cc:Agent>
        </dc:contributor>
        <cc:license
           rdf:resource="http://creativecommons.org/licenses/by-sa/4.0/" />
        <dc:date>2016-05-12</dc:date>
      </cc:Work>
      <cc:License
         rdf:about="http://creativecommons.org/licenses/by-sa/4.0/">
        <cc:permits
           rdf:resource="http://creativecommons.org/ns#Reproduction" />
        <cc:permits
           rdf:resource="http://creativecommons.org/ns#Distribution" />
        <cc:requires
           rdf:resource="http://creativecommons.org/ns#Notice" />
        <cc:requires
           rdf:resource="http://creativecommons.org/ns#Attribution" />
        <cc:permits
           rdf:resource="http://creativecommons.org/ns#DerivativeWorks" />
        <cc:requires
           rdf:resource="http://creativecommons.org/ns#ShareAlike" />
      </cc:License>
    </rdf:RDF>
  </metadata>
  <g
     inkscape:groupmode="layer"
     id="layer4"
     inkscape:label="Background"
     style="display:inline">
    <rect
       style="color:#000000;display:inline;overflow:visible;visibility:visible;fill:#ffffff;stroke:none;stroke-width:2;marker:none;enable-background:accumulate"
       id="rect3416"
       width="637.79529"
       height="283.46457"
       x="1.1230469e-06"
       y="-9.0820311e-07" />
    <path
       style="color:#000000;display:inline;overflow:visible;visibility:visible;fill:none;stroke:#000000;stroke-width:2;stroke-linecap:round;stroke-linejoin:miter;stroke-miterlimit:4;stroke-dashoffset:0;stroke-opacity:1;marker:none;enable-background:accumulate"
       d="m 89.79108,19.50393 h 120.7143 c 11.08,0 20,8.92 20,20 v 221.99994 c 0,11.08 -8.92,20 -20,20 H 39.076799 c -11.08,0 -20,-8.92 -20,-20 V 69.86107"
       id="rect3067"
       inkscape:connector-curvature="0"
       sodipodi:nodetypes="cssssssc" />
  </g>
  <g
     inkscape:label="Content"
     inkscape:groupmode="layer"
     id="layer1"
     transform="translate(0,-768.89763)"
     style="display:inline">
    <image
       sodipodi:absref="/home/xav/Desktop/Elvie/git/Elvie/Elvie_028/028_panel_3.png"
       xlink:href="028_panel_3.png"
       clip-path="url(#clipPath3095)"
       style="opacity:1"
       width="254.13547"
       height="280.88657"
       id="image3085"
       x="444.23978"
       y="782.79205" />
    <image
       sodipodi:absref="/home/xav/Desktop/Elvie/git/Elvie/Elvie_028/028_panel_2.png"
       xlink:href="028_panel_2.png"
       clip-path="url(#clipPath3091)"
       width="249.68031"
       height="275.41492"
       id="image3070"
       x="237.08578"
       y="784.65448" />
    <image
       sodipodi:absref="/home/xav/Desktop/Elvie/git/Elvie/Elvie_028/028_panel_1.png"
       xlink:href="028_panel_1.png"
       mask="url(#mask3056)"
       width="256.36905"
       height="276.22064"
       id="image3053"
       x="14.724816"
       y="783.3089" />
    <text
       id="text3092"
       y="1049.1158"
       x="573.07684"
       style="color:#000000;font-style:normal;font-variant:normal;font-weight:normal;font-stretch:normal;line-height:0%;font-family:'Komika Axis';-inkscape-font-specification:'Komika Text Kaps';text-indent:0;text-align:center;text-decoration:none;text-decoration-line:none;letter-spacing:0px;word-spacing:0px;text-transform:none;writing-mode:lr-tb;direction:ltr;baseline-shift:baseline;text-anchor:middle;display:inline;overflow:visible;visibility:visible;fill:#ffffff;fill-opacity:1;fill-rule:nonzero;stroke:#000000;stroke-width:2;stroke-linecap:round;stroke-linejoin:miter;stroke-miterlimit:4;stroke-dasharray:none;stroke-dashoffset:0;stroke-opacity:1;marker:none;enable-background:accumulate"
       xml:space="preserve"><tspan
         style="font-style:normal;font-variant:normal;font-weight:normal;font-stretch:normal;font-size:10px;line-height:1.25;font-family:'Komika Text Kaps';-inkscape-font-specification:'Komika Text Kaps';fill:#000000;stroke:none"
         y="1049.1158"
         x="573.07684"
         id="tspan3094"
         sodipodi:role="line"
         dx="0 0.75761443 0.75761443">WWW.PEPPERTOP.COM</tspan></text>
    <text
       xml:space="preserve"
       style="color:#000000;font-style:normal;font-variant:normal;font-weight:normal;font-stretch:normal;line-height:0%;font-family:'Komika Axis';-inkscape-font-specification:'Komika Axis';text-indent:0;text-align:center;text-decoration:none;text-decoration-line:none;letter-spacing:0px;word-spacing:0px;text-transform:none;writing-mode:lr-tb;direction:ltr;baseline-shift:baseline;text-anchor:middle;display:inline;overflow:visible;visibility:visible;fill:#ffffff;fill-opacity:1;fill-rule:nonzero;stroke:#000000;stroke-width:2;stroke-linecap:round;stroke-linejoin:miter;stroke-miterlimit:4;stroke-dasharray:none;stroke-dashoffset:0;stroke-opacity:1;marker:none;enable-background:accumulate"
       x="481.07681"
       y="1049.1158"
       id="text3096"><tspan
         sodipodi:role="line"
         id="tspan3098"
         x="481.07681"
         y="1049.1158"
         style="font-style:normal;font-variant:normal;font-weight:normal;font-stretch:normal;font-size:10px;line-height:1.25;font-family:'Komika Text Kaps';-inkscape-font-specification:'Komika Text Kaps';fill:#000000;stroke:none">CC-BY-SA</tspan></text>
  </g>
  <g
     inkscape:groupmode="layer"
     id="layer2"
     inkscape:label="Text"
     transform="translate(0,-768.89763)"
     style="display:inline">
    <g
       inkscape:groupmode="layer"
       id="layer5"
       inkscape:label="en-GB">
      <path
         style="color:#000000;display:inline;overflow:visible;visibility:visible;fill:#ffffff;fill-opacity:1;fill-rule:nonzero;stroke:#000000;stroke-width:1;marker:none;filter:url(#filter3233);enable-background:accumulate"
         d="m 172.9375,28 c -29.54798,0 -53.5,20.517808 -53.5,45.84375 0,17.013706 10.82063,31.83515 26.875,39.75 L 125.71875,131.8125 157.25,117.6875 c 4.96189,1.30264 10.22777,2 15.6875,2 29.54798,0 53.5,-20.517808 53.5,-45.84375 C 226.4375,48.517808 202.48548,28 172.9375,28 Z"
         transform="translate(0,768.89763)"
         id="path3055"
         inkscape:connector-curvature="0" />
      <path
         style="color:#000000;display:inline;overflow:visible;visibility:visible;fill:#ffffff;fill-opacity:1;fill-rule:nonzero;stroke:#000000;stroke-width:1;marker:none;filter:url(#filter3233);enable-background:accumulate"
         d="m 373.5,28.875 c -29.93922,0 -54.21875,15.223351 -54.21875,33.96875 0,15.744645 17.12191,28.945563 40.34375,32.78125 l -19.0625,27.34375 32.75,-26.1875 c 0.0623,1.32e-4 0.12516,0 0.1875,0 29.93922,0 54.1875,-15.192101 54.1875,-33.9375 C 427.6875,44.098351 403.43922,28.875 373.5,28.875 Z"
         transform="translate(0,768.89763)"
         id="path3057"
         inkscape:connector-curvature="0" />
      <path
         style="color:#000000;display:inline;overflow:visible;visibility:visible;fill:#ffffff;fill-opacity:1;fill-rule:nonzero;stroke:#000000;stroke-width:1;marker:none;filter:url(#filter3233);enable-background:accumulate"
         d="m 554.5625,22.65625 c -42.95733,0 -77.78125,14.380303 -77.78125,32.125 0,17.128624 32.45407,31.142405 73.34375,32.09375 l -16.9375,26.78125 30.9375,-27 c 38.44673,-1.946687 68.21875,-15.467446 68.21875,-31.875 0,-17.744697 -34.82392,-32.125 -77.78125,-32.125 z"
         transform="translate(0,768.89763)"
         id="path5223"
         inkscape:connector-curvature="0" />
      <text
         xml:space="preserve"
         style="color:#000000;font-style:normal;font-variant:normal;font-weight:normal;font-stretch:normal;line-height:0%;font-family:'Komika Text Kaps';-inkscape-font-specification:'Komika Text Kaps';text-indent:0;text-align:center;text-decoration:none;text-decoration-line:none;letter-spacing:0px;word-spacing:0px;text-transform:none;writing-mode:lr-tb;direction:ltr;baseline-shift:baseline;text-anchor:middle;display:inline;overflow:visible;visibility:visible;fill:#000000;fill-opacity:1;fill-rule:nonzero;stroke:none;stroke-width:2;marker:none;enable-background:accumulate"
         x="172.99985"
         y="815.53656"
         id="text3175"><tspan
           style="font-size:12px;line-height:1"
           sodipodi:role="line"
           x="172.99985"
           y="815.53656"
           id="tspan3195">Richard</tspan><tspan
           style="font-size:12px;line-height:1"
           sodipodi:role="line"
           x="172.99985"
           y="827.53656"
           id="tspan3103">Stallman</tspan><tspan
           style="font-size:12px;line-height:1"
           sodipodi:role="line"
           x="172.99985"
           y="839.53656"
           id="tspan3116">was born in 1953,</tspan><tspan
           style="font-size:12px;line-height:1"
           sodipodi:role="line"
           x="172.99985"
           y="851.53656"
           id="tspan3063">to Daniel Stallman</tspan><tspan
           style="font-size:12px;line-height:1"
           sodipodi:role="line"
           x="172.99985"
           y="863.53656"
           id="tspan3112">and Alice</tspan><tspan
           style="font-size:12px;line-height:1"
           sodipodi:role="line"
           x="172.99985"
           y="875.53656"
           id="tspan3059">Lippman.</tspan></text>
      <text
         id="text5056"
         y="809.41003"
         x="554.83282"
         style="color:#000000;font-style:normal;font-variant:normal;font-weight:normal;font-stretch:normal;line-height:0%;font-family:'Komika Text Kaps';-inkscape-font-specification:'Komika Text Kaps';text-indent:0;text-align:center;text-decoration:none;text-decoration-line:none;letter-spacing:0px;word-spacing:0px;text-transform:none;writing-mode:lr-tb;direction:ltr;baseline-shift:baseline;text-anchor:middle;display:inline;overflow:visible;visibility:visible;fill:#000000;fill-opacity:1;fill-rule:nonzero;stroke:none;stroke-width:2;marker:none;enable-background:accumulate"
         xml:space="preserve"><tspan
           y="809.41003"
           x="554.83282"
           sodipodi:role="line"
           style="font-size:12px;line-height:1"
           id="tspan3226">…why hasn't he</tspan><tspan
           y="821.41003"
           x="554.83282"
           sodipodi:role="line"
           style="font-size:12px;line-height:1"
           id="tspan3230">changed his name to</tspan><tspan
           y="833.41003"
           x="554.83282"
           sodipodi:role="line"
           style="font-size:12px;line-height:1"
           id="tspan3240">&quot;Richard Lippman/Stallman&quot;</tspan><tspan
           y="845.41003"
           x="554.83282"
           sodipodi:role="line"
           style="font-size:12px;line-height:1"
           id="tspan3242">???</tspan></text>
      <text
         xml:space="preserve"
         style="color:#000000;font-style:normal;font-variant:normal;font-weight:normal;font-stretch:normal;line-height:0%;font-family:'Komika Text Kaps';-inkscape-font-specification:'Komika Text Kaps';text-indent:0;text-align:center;text-decoration:none;text-decoration-line:none;letter-spacing:0px;word-spacing:0px;text-transform:none;writing-mode:lr-tb;direction:ltr;baseline-shift:baseline;text-anchor:middle;display:inline;overflow:visible;visibility:visible;fill:#000000;fill-opacity:1;fill-rule:nonzero;stroke:none;stroke-width:2;marker:none;enable-background:accumulate"
         x="373.27869"
         y="814.78479"
         id="text3213-2"><tspan
           style="font-size:12px;line-height:1"
           sodipodi:role="line"
           x="373.27869"
           y="814.78479"
           id="tspan3129">But as</tspan><tspan
           style="font-size:12px;line-height:1"
           sodipodi:role="line"
           x="373.27869"
           y="826.78479"
           id="tspan3145">his mother</tspan><tspan
           style="font-size:12px;line-height:1"
           sodipodi:role="line"
           x="373.27869"
           y="838.78479"
           id="tspan3133">contributed half</tspan><tspan
           style="font-size:12px;line-height:1"
           sodipodi:role="line"
           x="373.27869"
           y="850.78479"
           id="tspan3121">of his genes…</tspan></text>
    </g>
  </g>
  <g
     inkscape:groupmode="layer"
     id="layer3"
     inkscape:label="Border"
     style="display:inline">
    <path
       transform="translate(0,-768.89763)"
       sodipodi:nodetypes="cssssssc"
       inkscape:connector-curvature="0"
       id="path4567"
       d="M 89.791085,788.40156 H 210.50538 c 11.08,0 20,8.92 20,20 v 221.99994 c 0,11.08 -8.92,20 -20,20 H 39.076799 c -11.08,0 -20,-8.92 -20,-20 V 838.7587"
       style="color:#000000;display:inline;overflow:visible;visibility:visible;fill:none;stroke:#000000;stroke-width:2;stroke-linecap:round;stroke-linejoin:miter;stroke-miterlimit:4;stroke-dashoffset:0;stroke-opacity:1;marker:none;enable-background:accumulate" />
    <g
       id="g3404">
      <path
         inkscape:original-d="M 4.7910808,811.61585 C 30.981558,796.46629 52.529165,786.64304 83.362505,784.83014"
         inkscape:path-effect="#path-effect3047"
         sodipodi:nodetypes="cc"
         inkscape:connector-curvature="0"
         id="path3011"
         d="m 18.880384,787.63327 c -0.231923,0.0952 -0.422085,0.2392 -0.546552,0.37142 -0.239163,0.23615 -0.297235,0.67555 -0.2117,1.32337 0.218527,1.10637 0.460573,2.29475 0.764259,3.5985 0.322776,1.29625 0.66254,2.6346 1.042424,4.02291 0.378414,1.38291 0.800922,2.75994 1.233391,4.14047 0.424895,1.36824 0.849587,2.70908 1.277971,3.98053 0.426296,1.26523 0.844856,2.42052 1.249912,3.50516 0.395918,1.06733 0.778252,2.00498 1.108216,2.77026 0.176165,0.50958 0.426445,0.89562 0.755906,1.15766 0.319866,0.24322 0.666032,0.41029 1.091171,0.52794 0.565427,0.14114 1.031464,0.27336 1.383716,0.38124 0.342799,0.0889 0.723957,0.17587 1.115856,0.24113 0.166067,0.0359 0.315584,0.0605 0.471818,0.0777 0.172944,0.009 0.373054,-0.0248 0.577286,-0.079 0.213821,-0.035 0.425932,-0.11837 0.669238,-0.2624 0.243333,-0.14405 0.526943,-0.36103 0.842074,-0.65733 0.899477,-0.72368 1.849144,-1.47683 2.860239,-2.22978 1.018475,-0.7797 2.021929,-1.50672 2.993789,-2.21381 0.477932,-0.35018 0.710233,-0.6243 0.702362,-0.78381 0.0093,-0.16637 -0.124546,-0.41119 -0.423062,-0.76939 -0.212977,-0.3024 -0.460001,-0.60748 -0.751886,-0.8986 -0.2833,-0.31842 -0.621367,-0.60436 -0.985269,-0.86357 -0.372302,-0.27856 -0.700926,-0.42742 -1.006758,-0.40789 -0.296851,-0.008 -0.681066,0.12045 -1.152954,0.38125 -0.794602,0.43051 -1.523384,0.84467 -2.18269,1.24846 -0.660168,0.40429 -1.341004,0.89505 -2.063516,1.43495 -0.36118,-1.4495 -0.762338,-3.00105 -1.130624,-4.58714 -0.361738,-1.62232 -0.696787,-3.23735 -1.023353,-4.87356 -0.309063,-1.64839 -0.603596,-3.26212 -0.876331,-4.83023 -0.253591,-1.57406 -0.450609,-3.02637 -0.598695,-4.36423 -0.05781,-0.58284 -0.216129,-0.98006 -0.475034,-1.19047 -0.239149,-0.21869 -0.67532,-0.4146 -1.346713,-0.55127 -0.682186,-0.10846 -1.450926,-0.13525 -2.272174,-0.0782 -0.829477,0.0378 -1.556343,0.13205 -2.224602,0.26527 -0.339092,0.0571 -0.635874,0.11726 -0.867737,0.21241 z m -6.578138,3.42881 c -1.099222,0.62279 -2.176097,1.30709 -3.2173651,2.06233 -1.0329593,0.72656 -2.034412,1.46642 -2.9843056,2.23594 -0.9306842,0.7587 -1.7859872,1.52427 -2.610238,2.28378 -0.8073093,0.75037 -1.5601995,1.44255 -2.2078174,2.08485 2.6811607,6.64392 5.3981986,13.2678 8.1407597,19.87443 0.254203,0.5183 0.5775654,0.93059 0.9508034,1.18351 0.356244,0.26273 0.750675,0.41352 1.189011,0.50651 0.548977,0.12792 1.022008,0.23627 1.404024,0.313 0.388407,0.0485 0.772539,0.11677 1.176997,0.15679 0.360004,0.0408 0.73388,-4.3e-4 1.12493,-0.0993 0.418646,-0.0899 0.927421,-0.42331 1.498814,-0.98916 0.898915,-0.77436 1.831681,-1.6027 2.814015,-2.46031 0.98175,-0.85708 1.961613,-1.67273 2.924665,-2.4796 0.407133,-0.33939 0.613741,-0.61941 0.628524,-0.79667 0.0047,-0.19586 -0.12537,-0.44157 -0.410689,-0.7733 -0.316435,-0.26688 -0.638247,-0.52436 -0.928588,-0.78076 -0.283212,-0.28423 -0.618892,-0.5682 -1.026157,-0.83422 -0.370115,-0.23765 -0.738422,-0.34565 -1.074323,-0.31011 -0.318572,0.0263 -0.706673,0.19079 -1.167455,0.49012 -0.828202,0.52353 -1.583403,1.02971 -2.268635,1.53119 -0.668722,0.49246 -1.349512,1.05572 -2.070339,1.65677 -0.15628,-0.59815 -0.339456,-1.20389 -0.511795,-1.79292 -0.182726,-0.6074 -0.348722,-1.2442 -0.544261,-1.91772 0.875865,-0.78333 1.773889,-1.56745 2.747057,-2.34348 0.991493,-0.78629 1.965265,-1.54964 2.903369,-2.31571 0.429216,-0.37392 0.666814,-0.65632 0.692243,-0.86307 0.0429,-0.21567 -0.123123,-0.51147 -0.49316,-0.87115 -0.287347,-0.33089 -0.581378,-0.64875 -0.894822,-0.94158 -0.305935,-0.32116 -0.680366,-0.60705 -1.093695,-0.87085 -0.395514,-0.27312 -0.754585,-0.4095 -1.098949,-0.37041 -0.344262,0.0391 -0.756844,0.20425 -1.242424,0.49119 -0.592225,0.34462 -1.154701,0.68526 -1.663726,1.01308 -0.508405,0.32755 -0.997087,0.66525 -1.48274,1.03233 -0.268509,-1.14868 -0.544164,-2.20623 -0.809333,-3.23405 -0.274779,-1.04374 -0.496327,-2.05739 -0.689606,-3.04773 1.170898,-0.88598 2.288089,-1.71664 3.380172,-2.46699 1.093201,-0.75106 2.159627,-1.46558 3.195109,-2.16692 0.493927,-0.35027 0.779488,-0.64018 0.839962,-0.88667 0.06038,-0.24612 -0.07674,-0.6011 -0.402919,-1.05759 -0.315542,-0.38982 -0.606034,-0.74509 -0.883596,-1.05842 -0.287359,-0.33235 -0.656781,-0.66931 -1.133824,-1.00029 -0.737727,-0.70051 -1.645651,-0.76195 -2.699716,-0.18691 z m 66.87781,-20.30698 c -1.307385,0.14597 -2.621924,0.36506 -3.932414,0.67226 -1.291037,0.28381 -2.557881,0.60036 -3.787065,0.97248 -1.205312,0.36873 -2.341413,0.78028 -3.44106,1.2041 -1.081693,0.42203 -2.081637,0.81452 -2.961942,1.20311 0.17899,7.16511 0.495145,14.31641 0.949477,21.44963 0.07082,0.57263 0.236694,1.0692 0.493753,1.43297 0.238999,0.36738 0.544972,0.64308 0.906258,0.88062 0.449537,0.30863 0.834109,0.57341 1.148669,0.77865 0.328374,0.18077 0.6461,0.37927 0.989726,0.55944 0.304233,0.16518 0.645617,0.25947 1.020241,0.30728 0.396244,0.0661 0.947585,-0.0615 1.634056,-0.37864 1.041984,-0.39132 2.140995,-0.81288 3.30365,-1.2343 1.161204,-0.42089 2.318931,-0.79684 3.46384,-1.16357 0.48388,-0.15363 0.770015,-0.32957 0.84866,-0.48678 0.07652,-0.17803 0.0524,-0.45499 -0.07798,-0.8716 -0.182088,-0.36926 -0.373038,-0.73177 -0.536845,-1.08085 -0.147082,-0.37179 -0.341602,-0.76404 -0.607631,-1.16691 -0.243371,-0.36246 -0.533989,-0.60444 -0.848993,-0.70116 -0.295838,-0.0985 -0.705795,-0.0961 -1.2293,0.005 -0.93555,0.16757 -1.796764,0.352 -2.590044,0.56195 -0.775099,0.20768 -1.584079,0.4805 -2.436414,0.77867 0.06218,-0.61398 0.10383,-1.2424 0.150856,-1.85377 0.04388,-0.63144 0.114362,-1.28419 0.172316,-1.98187 1.07487,-0.40986 2.179617,-0.80592 3.352431,-1.15741 1.218955,-0.3617 2.298249,-0.66549 3.517205,-1.02719 0.534269,-0.17775 0.859611,-0.3442 0.962694,-0.52456 0.122289,-0.18145 0.08553,-0.51866 -0.113711,-0.99402 -0.134723,-0.41654 -0.281091,-0.82391 -0.455427,-1.21537 -0.156512,-0.41477 -0.390081,-0.82341 -0.66929,-1.22655 -0.259087,-0.40476 -0.538598,-0.66913 -0.872945,-0.76543 -0.334136,-0.0962 -0.781173,-0.10195 -1.342387,-0.0212 -0.683099,0.0936 -1.334975,0.19715 -1.933518,0.31121 -0.596913,0.11384 -1.179945,0.24672 -1.769183,0.40985 0.17542,-1.17473 0.311015,-2.24198 0.451591,-3.3031 0.13648,-1.07145 0.314845,-2.09394 0.514584,-3.08552 1.456577,-0.3886 2.8464,-0.73471 4.17653,-1.00693 1.330533,-0.27225 2.627809,-0.51373 3.88329,-0.74746 0.606398,-0.12614 0.992609,-0.27786 1.150677,-0.47988 0.157645,-0.20149 0.175585,-0.5818 0.05768,-1.13038 -0.135395,-0.48308 -0.26206,-0.92496 -0.394014,-1.32263 -0.133335,-0.41899 -0.342591,-0.87537 -0.65706,-1.368 -0.408136,-0.93485 -1.245991,-1.35136 -2.490961,-1.23176 z m -33.936407,6.45826 c -0.146795,0.067 -0.271668,0.16833 -0.386587,0.2818 -0.236155,0.20665 -0.370791,0.49784 -0.423549,0.91649 -0.312123,3.62939 -0.517407,7.28631 -0.620752,10.95395 -0.05875,2.56034 -0.117569,5.00816 -0.177931,7.40899 -0.02723,1.03971 -0.05554,2.06448 -0.0852,3.0759 -0.743392,-1.38438 -1.495159,-2.75863 -2.239698,-4.16402 -0.73365,-1.43229 -1.435259,-2.82602 -2.11368,-4.14161 -0.682245,-1.32295 -1.346096,-2.54118 -1.982715,-3.721 -0.609966,-1.17377 -1.156599,-2.22337 -1.651689,-3.14403 -0.673862,-1.20108 -1.771191,-1.77741 -3.286689,-1.71418 -0.628167,0.003 -1.209223,0.0476 -1.74039,0.17681 -0.511072,0.1209 -1.046374,0.30344 -1.621179,0.54909 -0.594784,0.25426 -0.910611,0.51093 -0.935368,0.77699 -0.0445,0.27514 0.07301,0.66841 0.34206,1.17901 2.175923,3.81833 4.226204,7.30729 6.159967,10.46828 1.944332,3.13437 3.772013,5.94466 5.497076,8.39275 0.299966,0.4299 0.739035,0.85006 1.300341,1.28924 0.570503,0.41242 1.22865,0.66068 1.995368,0.74822 0.689717,0.0946 1.345321,0.15201 1.932216,0.15749 0.591246,0.006 1.192991,-0.01 1.865543,-0.0253 0.06178,-0.003 0.121991,-0.008 0.180612,-0.0129 0,0 0,0 0,0 0.562524,-0.0522 0.977666,-0.19672 1.223211,-0.42755 0.277771,-0.23436 0.42865,-0.63525 0.500161,-1.20187 0.08903,-0.9521 0.207069,-2.09395 0.314086,-3.4069 0.106479,-1.30661 0.218721,-2.7356 0.360012,-4.22538 0.142284,-1.50056 0.306737,-3.04144 0.463083,-4.62701 0.154311,-1.56517 0.309192,-3.13389 0.466969,-4.60334 0.158091,-1.55054 0.289355,-2.88442 0.42423,-4.24513 0.130994,-1.32187 0.222008,-2.48874 0.26604,-3.47407 0.0632,-0.50316 0.03262,-0.92709 -0.08215,-1.27188 -0.09394,-0.35006 -0.260566,-0.62367 -0.526707,-0.86101 -0.266219,-0.23734 -0.613685,-0.43196 -1.012235,-0.56536 -0.403439,-0.15359 -0.818278,-0.27531 -1.302865,-0.38111 -0.470287,-0.13243 -0.937267,-0.23638 -1.386502,-0.28265 -0.43399,-0.0728 -0.839999,-0.0659 -1.211272,0.001 -0.17821,0.0202 -0.357001,0.0529 -0.503804,0.12004 z m 10.080142,-2.35366 c -0.253604,0.0483 -0.450904,0.12558 -0.604404,0.23875 -0.290743,0.20079 -0.440126,0.626 -0.484713,1.27328 0.0037,1.03302 0.02062,2.24338 0.07587,3.61641 0.05012,1.353 0.11514,2.77645 0.222408,4.2925 0.126076,1.49555 0.284085,3.04076 0.441006,4.5956 0.158659,1.572 0.325364,3.07232 0.516855,4.48235 0.171597,1.40641 0.36379,2.67963 0.562933,3.8585 0.175723,1.16491 0.35865,2.14123 0.517133,2.86925 0.09106,0.54952 0.24717,0.96106 0.471259,1.23179 0.201125,0.2552 0.536355,0.42155 1.000018,0.54262 0.428428,0.13026 0.865311,0.23445 1.305138,0.27757 0.457503,0.0387 0.924084,0.0666 1.415018,0.10204 0.485919,0.0147 0.790668,-0.0459 0.907149,-0.18271 0.133844,-0.14062 0.192162,-0.41 0.199209,-0.78361 -0.05642,-0.97477 -0.09486,-2.0613 -0.14468,-3.29915 -0.03599,-1.25023 -0.08053,-2.59467 -0.09257,-3.97987 -0.01675,-1.41873 -0.0117,-2.84831 -7.6e-5,-4.31488 0.0072,-1.4864 0.04057,-2.92189 0.08411,-4.32665 0.05916,-1.42954 0.138811,-2.78148 0.225526,-4.06198 0.106502,-1.27618 0.193963,-2.44164 0.305399,-3.43431 0.03798,-0.59395 -0.0334,-1.02547 -0.216537,-1.29469 -0.161478,-0.27234 -0.548243,-0.5328 -1.221203,-0.81173 -0.648375,-0.2625 -1.407421,-0.4833 -2.246601,-0.65374 -0.839189,-0.17037 -1.625323,-0.27189 -2.326298,-0.28744 -0.352667,-0.0182 -0.658368,0.002 -0.911957,0.05 z"
         style="color:#000000;display:inline;overflow:visible;visibility:visible;fill:#c92434;fill-opacity:1;fill-rule:nonzero;stroke:#000000;stroke-width:1;stroke-linecap:round;stroke-linejoin:miter;stroke-miterlimit:4;stroke-dasharray:none;stroke-dashoffset:0;stroke-opacity:1;marker:none;enable-background:accumulate"
         transform="translate(0,-768.89763)" />
      <path
         sodipodi:nodetypes="sscss"
         inkscape:connector-curvature="0"
         id="path3064"
         d="m 83.275845,806.59938 c 0.85296,4.1339 -13.10531,1.67735 -28.81094,6.1152 -16.101648,4.54974 -34.392366,16.08137 -44.020812,23.32396 3.041331,-7.05984 34.760096,-27.06958 55.505472,-31.12924 7.80417,-1.5272 16.47831,-2.41962 17.32628,1.69008 z"
         style="color:#000000;display:inline;overflow:visible;visibility:visible;fill:#c92434;fill-opacity:1;fill-rule:nonzero;stroke:#000000;stroke-width:1;stroke-linecap:round;stroke-linejoin:miter;stroke-miterlimit:4;stroke-dashoffset:0;stroke-opacity:1;marker:none;enable-background:accumulate"
         transform="translate(0,-768.89763)" />
    </g>
    <rect
       ry="20"
       y="19.50392"
       x="446.36246"
       height="249.28571"
       width="190.71428"
       id="rect4569-3"
       style="color:#000000;display:inline;overflow:visible;visibility:visible;fill:none;stroke:#000000;stroke-width:2;stroke-linecap:round;stroke-linejoin:miter;stroke-miterlimit:4;stroke-dasharray:none;stroke-dashoffset:0;stroke-opacity:1;marker:none;enable-background:accumulate" />
    <rect
       style="color:#000000;display:inline;overflow:visible;visibility:visible;fill:none;stroke:#000000;stroke-width:2.04997253;stroke-linecap:round;stroke-linejoin:miter;stroke-miterlimit:4;stroke-dasharray:none;stroke-dashoffset:0;stroke-opacity:1;marker:none;enable-background:accumulate"
       id="rect3014"
       width="194.77287"
       height="261.89874"
       x="240.96535"
       y="19.528906"
       ry="21.011934" />
  </g>
</svg>
